<svg id="Layer_1" data-name="Layer 1" xmlns="http://www.w3.org/2000/svg" width="566.9" height="149" viewBox="0 0 566.9 149"><defs><style>.cls-1{fill:#61388e;}</style></defs><title>logo--without-tagline</title><path id="_Path_" data-name="&lt;Path&gt;" d="M65.3,148.1H0V46H65.3V59.9H15.9V89.7H58v13.8H15.9v30.7H65.3Z"/><path id="_Path_2" data-name="&lt;Path&gt;" d="M134.6,73.5l-27.1,74.7H95.4L68.3,73.5H84l17.5,52.8,17.3-52.8Z"/><path id="_Compound_Path_" data-name="&lt;Compound Path&gt;" d="M196.3,148.1H181.5v-6.7c-5,5-11.5,7.6-19.5,7.6-8.8,0-15.3-2.2-19.7-6.7-3.9-4-5.8-9.3-5.8-15.9,0-6.4,2.2-11.5,6.5-15.4s10.7-5.8,18.9-5.8h19.5V100q0-13.8-16.2-13.8c-7.1,0-12.5,2.4-16.2,7.1l-9.8-9.2a28.18,28.18,0,0,1,11.4-8.4c3.8-1.5,8.8-2.2,15.1-2.2,20.3,0,30.4,8.4,30.4,25.3v49.3Zm-14.8-26.6v-6H164.2c-8.8,0-13.2,3.5-13.2,10.6s4.5,10.5,13.5,10.5q9.45,0,13.8-4.2C180.4,130.4,181.5,126.7,181.5,121.5Z"/><path id="_Path_3" data-name="&lt;Path&gt;" d="M239.8,148.1h-9.2c-6.6,0-11.7-2-15.3-6.1-3.3-3.7-4.9-8.4-4.9-14.3V59.1L225.2,53v73.9c0,5.7,2.7,8.6,8,8.6h6.5v12.6Z"/><path id="_Path_4" data-name="&lt;Path&gt;" d="M305.9,148.1H291.1v-7.4c-5,5.5-11.5,8.3-19.5,8.3-7.5,0-13.5-2.2-18.1-6.7-4.9-4.9-7.4-11.8-7.4-20.8v-48H261v45.8c0,5.4,1.5,9.6,4.4,12.5q3.9,3.9,10.5,3.9a15.43,15.43,0,0,0,11-4.1c2.9-2.8,4.3-6.9,4.3-12.3V73.5H306v74.6Z"/><path id="_Compound_Path_2" data-name="&lt;Compound Path&gt;" d="M375.8,148.1H361v-6.7c-5,5-11.5,7.6-19.5,7.6-8.8,0-15.3-2.2-19.7-6.7-3.9-4-5.8-9.3-5.8-15.9,0-6.4,2.2-11.5,6.5-15.4s10.7-5.8,18.9-5.8h19.5V100q0-13.8-16.2-13.8c-7.1,0-12.5,2.4-16.2,7.1l-9.8-9.2a28.18,28.18,0,0,1,11.4-8.4c3.8-1.5,8.8-2.2,15.1-2.2,20.3,0,30.4,8.4,30.4,25.3v49.3Zm-14.9-26.6v-6H343.6c-8.8,0-13.2,3.5-13.2,10.6s4.5,10.5,13.5,10.5q9.45,0,13.8-4.2C359.9,130.4,360.9,126.7,360.9,121.5Z"/><path id="_Path_5" data-name="&lt;Path&gt;" d="M422.5,148.1h-8.9q-9.75,0-15.3-6.3c-3.3-3.8-4.9-8.5-4.9-14.3V84.8H385V73.4h8.4V59.1L408.2,53V73.5h14.3V84.9H408.2V127c0,5.7,2.7,8.6,8.2,8.6h6.1v12.5Z"/><path id="_Compound_Path_3" data-name="&lt;Compound Path&gt;" d="M492.8,115.5H445c0,6.4,1.6,11.5,4.9,15.1s7.9,5.5,13.9,5.5a24,24,0,0,0,17.8-7.6l9.4,8.9a41.46,41.46,0,0,1-11.8,8.6,40,40,0,0,1-15.9,2.9q-33.15,0-33.2-37.8c0-11.8,2.8-21.1,8.4-27.7s13.2-10,22.9-10,17.4,3.3,23.1,9.9c5.4,6.4,8.2,14.9,8.2,25.6v6.6Zm-14.7-10.3a27.79,27.79,0,0,0-2-10c-2.6-6.2-7.4-9.3-14.5-9.3s-12,3.1-14.6,9.3a25.8,25.8,0,0,0-1.9,10Z"/><polygon id="_Path_6" data-name="&lt;Path&gt;" class="cls-1" points="474.3 46.2 520.5 0 566.9 0 566.9 45.9 520.6 92.2 520.6 46.2 474.3 46.2"/></svg>