<?xml version="1.0" encoding="UTF-8" standalone="no"?>
<svg width="255px" height="49px" viewBox="0 0 255 49" version="1.1" xmlns="http://www.w3.org/2000/svg" xmlns:xlink="http://www.w3.org/1999/xlink" xmlns:sketch="http://www.bohemiancoding.com/sketch/ns">
    <!-- Generator: Sketch 3.2.2 (9983) - http://www.bohemiancoding.com/sketch -->
    <title>logo-maladiesrares</title>
    <desc>Created with Sketch.</desc>
    <defs></defs>
    <g id="Styleguide" stroke="none" stroke-width="1" fill="none" fill-rule="evenodd" sketch:type="MSPage">
        <g id="assets" sketch:type="MSArtboardGroup" transform="translate(-57.000000, -757.000000)">
            <g id="logo-maladiesrares" sketch:type="MSLayerGroup" transform="translate(57.000000, 757.000000)">
                <path d="M59.4624174,21.9754348 L60.9618595,21.9754348 L60.9618595,1.96426087 L59.4624174,1.96426087 L59.4624174,21.9754348 Z M79.601095,18.5177391 L66.2799793,1.96426087 L65.6298347,1.96426087 L65.6298347,21.9754348 L67.1577273,21.9754348 L67.1577273,5.45284783 L80.5062397,21.9754348 L81.0994835,21.9754348 L81.0994835,1.96426087 L79.601095,1.96426087 L79.601095,18.5177391 L79.601095,18.5177391 Z M85.8380579,22.0052609 L87.3659504,22.0052609 L87.3659504,12.9423913 L98.7619215,12.9423913 L98.7619215,11.4830435 L87.3659504,11.4830435 L87.3659504,3.50776087 L99.1581198,3.50776087 L99.1581198,1.96426087 L85.8380579,1.96426087 L85.8380579,22.0052609 L85.8380579,22.0052609 Z M111.532996,22.3195 C118.179855,22.3195 121.486426,17.2597174 121.51593,11.9986087 C121.54438,6.59582609 118.206198,1.64895652 111.532996,1.64895652 C104.85874,1.64895652 101.551116,6.566 101.551116,11.9421522 C101.551116,17.2298913 104.88719,22.3195 111.532996,22.3195 L111.532996,22.3195 Z M111.532996,3.07847826 C117.216756,3.07847826 120.044938,7.33828261 120.044938,11.9687826 C120.044938,16.4863696 117.18936,20.888913 111.532996,20.888913 C105.906136,20.888913 103.076901,16.4863696 103.04845,11.9687826 C103.021054,7.25306522 105.849236,3.07847826 111.532996,3.07847826 L111.532996,3.07847826 Z M74.6760124,33.0941739 C72.8667769,33.0941739 71.2556405,33.6651304 70.0111983,35.6666739 C69.2188017,33.721587 67.5507645,33.0377174 65.8816736,33.0377174 C64.5529339,33.0377174 62.9407438,33.550087 62.2063017,34.9796087 L61.9513017,33.2656739 L58.7553719,33.2656739 L58.7553719,47.3872609 L62.2063017,47.3872609 L62.2063017,39.8412609 C62.2063017,37.9824565 63.3084917,36.2951522 65.1746281,36.2951522 C67.0692149,36.2951522 68.0312603,37.9824565 68.0312603,39.8412609 L68.0312603,47.3872609 L71.4811364,47.3872609 L71.4811364,39.8412609 C71.4811364,37.9824565 72.641281,36.3537391 74.5074174,36.3537391 C76.3735537,36.3537391 77.1375,37.926 77.1375,39.7826739 L77.1375,47.3872609 L80.587376,47.3872609 L80.587376,39.7826739 C80.587376,35.5516304 78.6358884,33.0941739 74.6760124,33.0941739 L74.6760124,33.0941739 Z M94.833657,35.2373913 C94.0433678,33.8366304 92.2604752,32.9514348 90.3943388,32.9514348 C86.3217149,32.9226739 83.1268388,35.4653478 83.1268388,40.327 C83.1268388,45.2717391 86.1815702,47.8463696 90.3089876,47.8165435 C91.8653306,47.7877826 94.0433678,46.9878043 94.833657,45.3303261 L95.0033058,47.3872609 L98.2561364,47.3872609 L98.2561364,33.2923043 L94.9474587,33.2923043 L94.833657,35.2373913 L94.833657,35.2373913 Z M90.7062397,44.6134348 C88.4154545,44.6134348 86.5767149,43.0145435 86.5767149,40.327 C86.5767149,37.6383913 88.4154545,36.0661304 90.7062397,36.0661304 C96.135,36.0661304 96.135,44.6134348 90.7062397,44.6134348 L90.7062397,44.6134348 Z M101.310868,47.3872609 L104.732293,47.3872609 L104.732293,27.4037826 L101.310868,27.4037826 L101.310868,47.3872609 Z M118.808926,35.2373913 C118.017583,33.8366304 116.23469,32.9514348 114.369607,32.9514348 C110.296983,32.9226739 107.101054,35.4653478 107.101054,40.327 C107.101054,45.2717391 110.155785,47.8463696 114.284256,47.8165435 C115.839545,47.7877826 118.017583,46.9878043 118.808926,45.3303261 L118.978574,47.3872609 L122.231405,47.3872609 L122.231405,33.2923043 L118.922727,33.2923043 L118.808926,35.2373913 L118.808926,35.2373913 Z M114.679401,44.6134348 C112.389669,44.6134348 110.55093,43.0145435 110.55093,40.327 C110.55093,37.6383913 112.389669,36.0661304 114.679401,36.0661304 C120.109215,36.0661304 120.109215,44.6134348 114.679401,44.6134348 L114.679401,44.6134348 Z M136.28064,35.2086304 C135.460847,33.751413 133.170062,32.9514348 131.700124,32.9514348 C127.626446,32.9514348 124.601219,35.4653478 124.601219,40.327 C124.601219,44.9575 127.684401,47.7015 131.784421,47.7015 C133.480909,47.7015 135.205847,47.1305435 136.28064,45.4432391 L136.506136,47.3872609 L139.730517,47.3872609 L139.730517,27.4037826 L136.28064,27.4037826 L136.28064,35.2086304 L136.28064,35.2086304 Z M132.009917,44.4717609 C129.805537,44.4717609 128.051095,42.7844565 128.051095,40.327 C128.051095,37.7811304 129.805537,36.2088696 132.009917,36.2088696 C134.189008,36.2088696 136.055145,37.867413 136.055145,40.327 C136.055145,42.8696739 134.189008,44.4717609 132.009917,44.4717609 L132.009917,44.4717609 Z M142.523926,29.3190435 C142.523926,32.036413 146.597603,32.036413 146.597603,29.3190435 C146.597603,26.6038043 142.523926,26.6038043 142.523926,29.3190435 L142.523926,29.3190435 Z M142.834773,47.3872609 L146.284649,47.3872609 L146.284649,33.2358478 L142.834773,33.2358478 L142.834773,47.3872609 Z M156.102149,32.8651522 C151.577479,32.8651522 148.692397,35.951087 148.692397,40.2407174 C148.692397,44.7583043 151.549029,47.760087 156.357149,47.760087 C158.477231,47.760087 160.881818,47.0155 162.351756,45.472 L160.146322,43.2701957 C159.353926,44.1010652 157.684835,44.5868043 156.412996,44.5868043 C153.982066,44.5868043 152.482624,43.3287826 152.255021,41.5850217 L163.143099,41.5850217 C163.68155,35.7817174 160.768017,32.8651522 156.102149,32.8651522 L156.102149,32.8651522 Z M152.312975,38.6982826 C152.821921,36.8682391 154.34876,35.951087 156.213843,35.951087 C158.193781,35.951087 159.607872,36.8682391 159.834421,38.6982826 L152.312975,38.6982826 L152.312975,38.6982826 Z M171.160847,38.724913 C169.377955,38.612 168.558161,38.0975 168.558161,37.1824783 C168.558161,36.2951522 169.463306,35.7817174 171.103946,35.7817174 C172.432686,35.7817174 173.565434,36.0959565 174.55593,37.0376087 L176.47686,34.7516522 C174.865723,33.3221304 173.226136,32.8928478 171.048099,32.8928478 C168.502314,32.8928478 165.16624,34.0379565 165.16624,37.2953913 C165.16624,40.4985 168.305269,41.4699783 170.935351,41.6702391 C172.913182,41.7831522 173.706632,42.1858043 173.706632,43.1572826 C173.706632,44.1873478 172.49064,44.8712174 171.188244,44.844587 C169.632955,44.8147609 167.371674,43.9860217 166.382231,42.8696739 L164.685744,45.3569565 C166.721529,47.5033696 168.926963,47.873 171.132397,47.873 C175.120723,47.873 177.128058,45.7297826 177.128058,43.2425 C177.128058,39.4971957 173.79093,38.896413 171.160847,38.724913 L171.160847,38.724913 Z M188.494525,34.9231522 L188.239525,33.2923043 L185.044649,33.2923043 L185.044649,47.3872609 L188.494525,47.3872609 L188.494525,39.9541739 C188.494525,37.3539783 190.163616,36.3803696 191.972851,36.3803696 C193.103492,36.3803696 193.753636,36.6967391 194.462789,37.2953913 L196.018079,34.265913 C195.253079,33.4936304 193.868492,32.9226739 192.427004,32.9226739 C191.012913,32.9226739 189.569318,33.1793913 188.494525,34.9231522 L188.494525,34.9231522 Z M207.978843,35.2373913 C207.1875,33.8366304 205.404607,32.9514348 203.538471,32.9514348 C199.467955,32.9226739 196.272025,35.4653478 196.272025,40.327 C196.272025,45.2717391 199.324649,47.8463696 203.454174,47.8165435 C205.009463,47.7877826 207.1875,46.9878043 207.978843,45.3303261 L208.148492,47.3872609 L211.401322,47.3872609 L211.401322,33.2923043 L208.092645,33.2923043 L207.978843,35.2373913 L207.978843,35.2373913 Z M203.849318,44.6134348 C201.558533,44.6134348 199.721901,43.0145435 199.721901,40.327 C199.721901,37.6383913 201.558533,36.0661304 203.849318,36.0661304 C209.279132,36.0661304 209.279132,44.6134348 203.849318,44.6134348 L203.849318,44.6134348 Z M217.90593,34.9231522 L217.651983,33.2923043 L214.456054,33.2923043 L214.456054,47.3872609 L217.90593,47.3872609 L217.90593,39.9541739 C217.90593,37.3539783 219.575021,36.3803696 221.38531,36.3803696 C222.51595,36.3803696 223.166095,36.6967391 223.874194,37.2953913 L225.429483,34.265913 C224.665537,33.4936304 223.279897,32.9226739 221.838409,32.9226739 C220.424318,32.9226739 218.980723,33.1793913 217.90593,34.9231522 L217.90593,34.9231522 Z M233.149029,32.8651522 C228.62436,32.8651522 225.740331,35.951087 225.740331,40.2407174 C225.740331,44.7583043 228.595909,47.760087 233.404029,47.760087 C235.525165,47.760087 237.928698,47.0155 239.39969,45.472 L237.194256,43.2701957 C236.400806,44.1010652 234.731715,44.5868043 233.459876,44.5868043 C231.028946,44.5868043 229.529504,43.3287826 229.301901,41.5850217 L240.189979,41.5850217 C240.72843,35.7817174 237.814897,32.8651522 233.149029,32.8651522 L233.149029,32.8651522 Z M229.359855,38.6982826 C229.869855,36.8682391 231.39564,35.951087 233.261777,35.951087 C235.240661,35.951087 236.655806,36.8682391 236.881302,38.6982826 L229.359855,38.6982826 L229.359855,38.6982826 Z M248.206674,38.724913 C246.423781,38.612 245.602934,38.0975 245.602934,37.1824783 C245.602934,36.2951522 246.508079,35.7817174 248.150826,35.7817174 C249.477459,35.7817174 250.61126,36.0959565 251.600702,37.0376087 L253.522686,34.7516522 C251.91155,33.3221304 250.270909,32.8928478 248.092872,32.8928478 C245.547087,32.8928478 242.211012,34.0379565 242.211012,37.2953913 C242.211012,40.4985 245.351095,41.4699783 247.981178,41.6702391 C249.960062,41.7831522 250.751405,42.1858043 250.751405,43.1572826 C250.751405,44.1873478 249.535413,44.8712174 248.233017,44.844587 C246.677727,44.8147609 244.416446,43.9860217 243.427004,42.8696739 L241.730517,45.3569565 C243.766302,47.5033696 245.971736,47.873 248.177169,47.873 C252.165496,47.873 254.172831,45.7297826 254.172831,43.2425 C254.172831,39.4971957 250.836756,38.896413 248.206674,38.724913 L248.206674,38.724913 Z" id="Fill-1" fill="#4DA5B4" sketch:type="MSShapeGroup"></path>
                <path d="M40.9959917,6.29969565 C40.2889463,7.91563043 39.4101446,9.46871739 38.3659091,10.941913 C38.9191116,11.573587 39.4480785,12.2425435 39.9190909,12.9903261 C42.9948967,17.8711522 42.993843,24.3199783 39.9169835,29.2008043 C34.7189876,37.4466522 24.0542975,38.6450217 17.2272521,32.8491739 C17.2219835,32.8555652 17.2167149,32.8619565 17.2103926,32.8683478 C15.9722727,34.118913 14.6382645,35.2118261 13.2368182,36.1588043 C13.8690496,36.75 14.5465909,37.3113696 15.2715496,37.837587 C22.1871074,42.8579565 31.7696281,42.8590217 38.685186,37.8386522 C49.2740083,30.1531087 50.0390083,15.0664348 40.9959917,6.29969565" id="Fill-2" fill="#4DA5B4" sketch:type="MSShapeGroup"></path>
                <path d="M0.797665289,41.5679783 C-0.173863636,42.5511739 -0.173863636,44.1447391 0.797665289,45.1279348 L3.20541322,47.5608913 C4.17694215,48.544087 5.7543595,48.544087 6.72588843,47.5608913 L13.2199587,40.9959565 C13.185186,40.9714565 13.1472521,40.9501522 13.1124793,40.924587 C11.9091322,40.0511087 10.8238017,39.0902826 9.84173554,38.0666087 C7.33809917,39.2521957 4.69326446,40.0191522 1.99890496,40.3546957 L0.797665289,41.5679783" id="Fill-3" fill="#4DA5B4" sketch:type="MSShapeGroup"></path>
                <path d="M23.9331198,21.0518913 C23.0796074,24.289087 21.6033471,27.3856739 19.5096074,30.1658913 C21.5338017,31.8713043 24.1375413,32.9003043 26.9794215,32.9003043 C33.4292355,32.9003043 38.6577893,27.6136304 38.6577893,21.0934348 C38.6577893,18.3046957 37.6957438,15.7460435 36.0961983,13.7253261 C35.9328719,13.9000217 35.7906198,14.0853696 35.6209711,14.2558043 C32.2638223,17.6506522 28.2133264,19.8993261 23.9331198,21.0518913" id="Fill-4" fill="#4DA5B4" sketch:type="MSShapeGroup"></path>
                <path d="M38.6862397,4.34928261 C33.6726446,0.709434783 27.2597107,-0.276956522 21.4747934,1.36134783 C22.3283058,2.89313043 23.0205992,4.4898913 23.546405,6.13245652 C28.7696901,4.91278261 34.4913843,6.52126087 38.3659091,10.941913 C39.4101446,9.46871739 40.2889463,7.91563043 40.9959917,6.29969565 C40.2847314,5.6105 39.5197314,4.95432609 38.6862397,4.34928261" id="Fill-5" fill="#835042" sketch:type="MSShapeGroup"></path>
                <path d="M26.9794215,9.28763043 C26.0953512,9.28763043 25.237624,9.39628261 24.4104545,9.58376087 C25.0858884,13.386587 24.9204545,17.3044565 23.9331198,21.0518913 C28.2133264,19.8993261 32.2638223,17.6506522 35.6209711,14.2558043 C35.7906198,14.0853696 35.9328719,13.9000217 36.0961983,13.7253261 C33.956095,11.0228696 30.6705992,9.28763043 26.9794215,9.28763043" id="Fill-6" fill="#835042" sketch:type="MSShapeGroup"></path>
                <path d="M1.99890496,40.3546957 C4.69326446,40.0191522 7.33809917,39.2521957 9.84173554,38.0666087 C8.90603306,37.0908696 8.06411157,36.0576087 7.31702479,34.9785435 L1.99890496,40.3546957" id="Fill-7" fill="#835042" sketch:type="MSShapeGroup"></path>
                <path d="M15.3400413,21.8753043 C15.5560537,25.2030435 17.1239876,28.1568913 19.5096074,30.1658913 C21.6033471,27.3856739 23.0796074,24.289087 23.9331198,21.0518913 C21.1249587,21.8081957 18.2209091,22.084087 15.3400413,21.8753043" id="Fill-8" fill="#835042" sketch:type="MSShapeGroup"></path>
                <path d="M14.0418595,29.2008043 C12.5519008,26.837087 11.790062,24.1048043 11.7426446,21.3618696 C10.0398347,20.9933043 8.37179752,20.4457826 6.75644628,19.7299565 C6.36657025,25.6738696 8.52353306,31.7562609 13.2368182,36.1588043 C14.6382645,35.2118261 15.9722727,34.118913 17.2103926,32.8683478 C17.2167149,32.8619565 17.2219835,32.8555652 17.2272521,32.8491739 C16.0365496,31.8372174 14.9480579,30.6388478 14.0418595,29.2008043" id="Fill-9" fill="#835042" sketch:type="MSShapeGroup"></path>
                <path d="M23.9331198,21.0518913 C24.9204545,17.3044565 25.0858884,13.386587 24.4104545,9.58376087 C19.1977066,10.7682826 15.3010537,15.4669565 15.3010537,21.0934348 C15.3010537,21.3576087 15.3231818,21.6153913 15.3400413,21.8753043 C18.2209091,22.084087 21.1249587,21.8081957 23.9331198,21.0518913" id="Fill-10" fill="#D64D10" sketch:type="MSShapeGroup"></path>
                <path d="M14.0397521,12.9903261 C16.380062,9.27591304 19.8341529,6.99847826 23.546405,6.13245652 C23.0205992,4.4898913 22.3283058,2.89313043 21.4747934,1.36134783 C19.2798967,1.98236957 17.1735124,2.96982609 15.2715496,4.35034783 C9.97450413,8.19684783 7.13894628,13.8968261 6.75644628,19.7299565 C8.37179752,20.4457826 10.0398347,20.9933043 11.7426446,21.3618696 C11.6931198,18.4410435 12.453905,15.5074348 14.0397521,12.9903261" id="Fill-11" fill="#D64D10" sketch:type="MSShapeGroup"></path>
            </g>
        </g>
    </g>
</svg>